<svg width="173" height="21" viewBox="0 0 173 21" fill="none" xmlns="http://www.w3.org/2000/svg">
<path d="M6.816 15.152C11.456 15.12 15.296 15.04 18.336 14.912C18.128 15.728 18 16.512 17.952 17.264C17.904 18.016 17.88 18.928 17.88 20H0.96C1.088 16.896 1.152 13.992 1.152 11.288C1.152 8.584 1.088 5.68 0.96 2.576H6.816V15.152ZM23.4651 5.48C22.4571 5.48 21.7051 5.232 21.2091 4.736C20.7291 4.24 20.4891 3.592 20.4891 2.792C20.4891 2.008 20.7291 1.36 21.2091 0.847999C21.7051 0.335999 22.4571 0.079999 23.4651 0.079999C24.4251 0.079999 25.1611 0.343999 25.6731 0.871999C26.1851 1.384 26.4411 2.024 26.4411 2.792C26.4411 3.592 26.1931 4.24 25.6971 4.736C25.2011 5.232 24.4571 5.48 23.4651 5.48ZM20.6811 20C20.7931 17.424 20.8491 15.296 20.8491 13.616C20.8491 11.616 20.7851 9.376 20.6571 6.896H26.4171C26.2891 9.28 26.2251 11.52 26.2251 13.616C26.2251 15.376 26.2811 17.504 26.3931 20H20.6811ZM36.3448 20.24C35.0008 20.24 33.6328 20.056 32.2408 19.688C30.8648 19.304 29.5688 18.728 28.3528 17.96L30.8728 14.528C31.6088 15.056 32.4968 15.472 33.5368 15.776C34.5768 16.064 35.4728 16.208 36.2248 16.208C36.9448 16.208 37.4968 16.112 37.8808 15.92C38.2808 15.712 38.4808 15.448 38.4808 15.128C38.4808 14.872 38.3848 14.672 38.1928 14.528C38.0008 14.384 37.7368 14.312 37.4008 14.312C37.1928 14.312 36.9528 14.32 36.6808 14.336C36.4248 14.352 36.2168 14.368 36.0568 14.384C35.2248 14.48 34.3688 14.528 33.4888 14.528C32.0648 14.528 30.9048 14.264 30.0088 13.736C29.1288 13.192 28.6888 12.312 28.6888 11.096C28.6888 9.688 29.3528 8.6 30.6808 7.832C32.0088 7.048 33.9608 6.656 36.5368 6.656C37.8008 6.656 39.0728 6.84 40.3528 7.208C41.6488 7.56 42.7928 8.096 43.7848 8.816L41.0248 11.6C40.1128 11.12 39.2568 10.784 38.4568 10.592C37.6728 10.384 36.8808 10.28 36.0808 10.28C35.5208 10.28 35.0408 10.392 34.6408 10.616C34.2408 10.84 34.0408 11.096 34.0408 11.384C34.0408 11.608 34.1208 11.784 34.2808 11.912C34.4568 12.04 34.6808 12.104 34.9528 12.104C35.2248 12.104 35.6008 12.08 36.0808 12.032C37.2488 11.952 38.1208 11.912 38.6968 11.912C40.3608 11.912 41.6488 12.192 42.5608 12.752C43.4728 13.312 43.9288 14.168 43.9288 15.32C43.9288 17.048 43.2568 18.304 41.9128 19.088C40.5688 19.856 38.7128 20.24 36.3448 20.24ZM61.3091 2.6C64.4931 2.6 66.7091 3.168 67.9571 4.304C69.2051 5.424 69.8291 7.008 69.8291 9.056C69.8291 10.464 69.5811 11.664 69.0851 12.656C68.5891 13.632 67.7171 14.4 66.4691 14.96C65.2211 15.504 63.5011 15.776 61.3091 15.776H56.3171V20H50.4131C50.5411 16.896 50.6051 13.992 50.6051 11.288C50.6051 8.584 50.5411 5.68 50.4131 2.576H56.3171V2.6H61.3091ZM59.6291 11.144C60.9571 11.144 61.9491 11.096 62.6051 11C63.2771 10.888 63.7411 10.696 63.9971 10.424C64.2691 10.152 64.4051 9.752 64.4051 9.224C64.4051 8.696 64.2771 8.304 64.0211 8.048C63.7811 7.776 63.3251 7.592 62.6531 7.496C61.9971 7.4 60.9891 7.352 59.6291 7.352H56.3171V11.144H59.6291ZM84.4373 14H76.6133C76.7413 14.704 77.0533 15.28 77.5493 15.728C78.0613 16.16 78.7813 16.376 79.7093 16.376C80.3813 16.376 81.0133 16.248 81.6053 15.992C82.1973 15.72 82.6693 15.344 83.0213 14.864C84.0933 15.392 85.5173 15.96 87.2933 16.568C86.7973 17.688 85.8933 18.584 84.5813 19.256C83.2853 19.912 81.5893 20.24 79.4933 20.24C76.7733 20.24 74.7573 19.616 73.4453 18.368C72.1493 17.104 71.5013 15.448 71.5013 13.4C71.5013 11.4 72.1493 9.776 73.4453 8.528C74.7413 7.28 76.7573 6.656 79.4933 6.656C81.1253 6.656 82.5413 6.928 83.7413 7.472C84.9413 8.016 85.8613 8.776 86.5013 9.752C87.1413 10.712 87.4613 11.816 87.4613 13.064C87.4613 13.48 87.4453 13.792 87.4133 14H84.4373ZM79.8293 10.28C79.0293 10.28 78.3733 10.432 77.8613 10.736C77.3493 11.04 76.9893 11.456 76.7812 11.984H82.4453C82.2533 11.472 81.9413 11.064 81.5093 10.76C81.0773 10.44 80.5173 10.28 79.8293 10.28ZM98.4919 20C98.5879 17.648 98.6359 15.48 98.6359 13.496C98.6359 12.792 98.4599 12.232 98.1079 11.816C97.7719 11.4 97.3399 11.192 96.8119 11.192C96.2839 11.192 95.8359 11.432 95.4679 11.912C95.0999 12.376 94.8839 13.016 94.8199 13.832C94.7879 15.048 94.7719 15.912 94.7719 16.424C94.7719 17.512 94.8039 18.704 94.8679 20H89.1319C89.2599 17.696 89.3239 15.52 89.3239 13.472C89.3239 11.424 89.2599 9.232 89.1319 6.896C90.1879 6.944 90.9959 6.968 91.5559 6.968C92.1479 6.968 92.9559 6.944 93.9799 6.896L94.6759 10.424C95.0439 9.144 95.6199 8.2 96.4039 7.592C97.1879 6.968 98.0999 6.656 99.1399 6.656C100.1 6.656 100.932 6.872 101.636 7.304C102.34 7.72 102.868 8.288 103.22 9.008C103.588 9.728 103.772 10.536 103.772 11.432V14.888C103.772 17.016 103.812 18.72 103.892 20H98.4919ZM121.515 1.328C121.419 4.304 121.371 7.416 121.371 10.664C121.371 13.88 121.419 16.992 121.515 20H116.091L116.163 17.12C115.699 18.192 115.027 18.984 114.147 19.496C113.267 19.992 112.227 20.24 111.027 20.24C109.987 20.24 109.051 19.944 108.219 19.352C107.387 18.76 106.739 17.96 106.275 16.952C105.811 15.928 105.579 14.808 105.579 13.592C105.579 12.392 105.811 11.264 106.275 10.208C106.739 9.136 107.387 8.28 108.219 7.64C109.067 6.984 110.027 6.656 111.099 6.656C112.347 6.656 113.411 6.92 114.291 7.448C115.187 7.96 115.851 8.76 116.283 9.848C116.283 8.936 116.251 7.472 116.187 5.456C116.123 3.504 116.091 2.128 116.091 1.328H121.515ZM113.547 16.208C114.331 16.208 114.971 15.992 115.467 15.56C115.963 15.112 116.211 14.408 116.211 13.448C116.211 12.6 115.963 11.976 115.467 11.576C114.971 11.176 114.347 10.976 113.595 10.976C112.875 10.976 112.267 11.208 111.771 11.672C111.291 12.12 111.051 12.712 111.051 13.448C111.051 14.264 111.275 14.928 111.723 15.44C112.171 15.952 112.779 16.208 113.547 16.208ZM136.14 14H128.316C128.444 14.704 128.756 15.28 129.252 15.728C129.764 16.16 130.484 16.376 131.412 16.376C132.084 16.376 132.716 16.248 133.308 15.992C133.9 15.72 134.372 15.344 134.724 14.864C135.796 15.392 137.22 15.96 138.996 16.568C138.5 17.688 137.596 18.584 136.284 19.256C134.988 19.912 133.292 20.24 131.196 20.24C128.476 20.24 126.46 19.616 125.148 18.368C123.852 17.104 123.204 15.448 123.204 13.4C123.204 11.4 123.852 9.776 125.148 8.528C126.444 7.28 128.46 6.656 131.196 6.656C132.828 6.656 134.244 6.928 135.444 7.472C136.644 8.016 137.564 8.776 138.204 9.752C138.844 10.712 139.164 11.816 139.164 13.064C139.164 13.48 139.148 13.792 139.116 14H136.14ZM131.532 10.28C130.732 10.28 130.076 10.432 129.564 10.736C129.052 11.04 128.692 11.456 128.484 11.984H134.148C133.956 11.472 133.644 11.064 133.212 10.76C132.78 10.44 132.22 10.28 131.532 10.28ZM150.195 20C150.291 17.648 150.339 15.48 150.339 13.496C150.339 12.792 150.163 12.232 149.811 11.816C149.475 11.4 149.043 11.192 148.515 11.192C147.987 11.192 147.539 11.432 147.171 11.912C146.803 12.376 146.587 13.016 146.523 13.832C146.491 15.048 146.475 15.912 146.475 16.424C146.475 17.512 146.507 18.704 146.571 20H140.835C140.963 17.696 141.027 15.52 141.027 13.472C141.027 11.424 140.963 9.232 140.835 6.896C141.891 6.944 142.699 6.968 143.259 6.968C143.851 6.968 144.659 6.944 145.683 6.896L146.379 10.424C146.747 9.144 147.323 8.2 148.107 7.592C148.891 6.968 149.803 6.656 150.843 6.656C151.803 6.656 152.635 6.872 153.339 7.304C154.043 7.72 154.571 8.288 154.923 9.008C155.291 9.728 155.475 10.536 155.475 11.432V14.888C155.475 17.016 155.515 18.72 155.595 20H150.195ZM165.275 20.24C163.931 20.24 162.563 20.056 161.171 19.688C159.795 19.304 158.499 18.728 157.283 17.96L159.803 14.528C160.539 15.056 161.427 15.472 162.467 15.776C163.507 16.064 164.403 16.208 165.155 16.208C165.875 16.208 166.427 16.112 166.811 15.92C167.211 15.712 167.411 15.448 167.411 15.128C167.411 14.872 167.315 14.672 167.123 14.528C166.931 14.384 166.667 14.312 166.331 14.312C166.123 14.312 165.883 14.32 165.611 14.336C165.355 14.352 165.147 14.368 164.987 14.384C164.155 14.48 163.299 14.528 162.419 14.528C160.995 14.528 159.835 14.264 158.939 13.736C158.059 13.192 157.619 12.312 157.619 11.096C157.619 9.688 158.283 8.6 159.611 7.832C160.939 7.048 162.891 6.656 165.467 6.656C166.731 6.656 168.003 6.84 169.283 7.208C170.579 7.56 171.723 8.096 172.715 8.816L169.955 11.6C169.043 11.12 168.187 10.784 167.387 10.592C166.603 10.384 165.811 10.28 165.011 10.28C164.451 10.28 163.971 10.392 163.571 10.616C163.171 10.84 162.971 11.096 162.971 11.384C162.971 11.608 163.051 11.784 163.211 11.912C163.387 12.04 163.611 12.104 163.883 12.104C164.155 12.104 164.531 12.08 165.011 12.032C166.179 11.952 167.051 11.912 167.627 11.912C169.291 11.912 170.579 12.192 171.491 12.752C172.403 13.312 172.859 14.168 172.859 15.32C172.859 17.048 172.187 18.304 170.843 19.088C169.499 19.856 167.643 20.24 165.275 20.24Z" fill="black"/>
</svg>
